<svg width="105" height="102" viewBox="0 0 105 102" fill="none" xmlns="http://www.w3.org/2000/svg">
<g opacity="0.254545">
<path d="M65.7196 3.631C65.7196 5.29717 64.3618 6.64794 62.6872 6.64794C61.0124 6.64794 59.6548 5.29717 59.6548 3.631C59.6548 1.96493 61.0124 0.614258 62.6872 0.614258C64.3618 0.614258 65.7196 1.96493 65.7196 3.631Z" fill="#9AA3C4"/>
</g>
<g opacity="0.590947">
<path d="M41.8526 10.7488L40.0518 11.7832C39.7257 11.9705 39.3088 11.8593 39.1206 11.535L35.8688 5.93154C35.6805 5.60724 35.7923 5.1925 36.1183 5.0053L37.9192 3.97082C38.2452 3.78361 38.662 3.89471 38.8503 4.21901L42.1021 9.82244C42.2903 10.1468 42.1786 10.5615 41.8526 10.7488Z" fill="#9AA3C4"/>
</g>
<g opacity="0.590947">
<path d="M11.4925 22.924L11.8976 23.0607C12.3569 23.2157 12.8635 23.1359 13.2523 22.8472L13.5951 22.5927C14.574 21.8659 15.9658 22.5714 15.9502 23.7865L15.9448 24.212C15.9385 24.6946 16.1713 25.1493 16.5673 25.4279L16.9166 25.6736C17.9139 26.3753 17.6695 27.91 16.5031 28.2708L16.0946 28.3971C15.6314 28.5403 15.2689 28.9012 15.1249 29.362L14.9979 29.7684C14.6353 30.9288 13.0926 31.1719 12.3873 30.1797L12.1402 29.8323C11.8601 29.4383 11.4031 29.2066 10.9182 29.2128L10.4904 29.2182C9.26907 29.2337 8.56 27.8492 9.29053 26.8752L9.54646 26.5341C9.83656 26.1475 9.91674 25.6435 9.76096 25.1864L9.62356 24.7834C9.23132 23.6325 10.3357 22.5338 11.4925 22.924Z" fill="#40916C"/>
</g>
<g opacity="0.590947">
<path d="M8.61682 44.2897L9.07164 46.3084C9.15401 46.6738 8.92302 47.0366 8.55561 47.1184L2.20957 48.5337C1.84226 48.6156 1.47775 48.3858 1.39528 48.0204L0.940455 46.0015C0.858192 45.6361 1.08918 45.2735 1.45648 45.1916L7.80263 43.7763C8.16993 43.6945 8.53445 43.9243 8.61682 44.2897Z" fill="#40916C"/>
</g>
<g opacity="0.590947">
<path d="M15.0597 70.1164C15.0597 71.7824 13.7021 73.1331 12.0274 73.1331C10.3526 73.1331 8.99512 71.7824 8.99512 70.1164C8.99512 68.4503 10.3526 67.0996 12.0274 67.0996C13.7021 67.0996 15.0597 68.4503 15.0597 70.1164Z" fill="#F9C033"/>
</g>
<g opacity="0.590947">
<path d="M11.4925 84.971L11.8976 85.1077C12.3569 85.2625 12.8635 85.1828 13.2523 84.8942L13.5951 84.6395C14.574 83.9129 15.9658 84.6183 15.9502 85.8334L15.9448 86.259C15.9385 86.7415 16.1713 87.1962 16.5673 87.4748L16.9166 87.7204C17.9139 88.4222 17.6695 89.9569 16.5031 90.3177L16.0946 90.444C15.6314 90.5872 15.2689 90.9481 15.1249 91.4089L14.9979 91.8152C14.6353 92.9757 13.0926 93.2188 12.3873 92.2266L12.1402 91.8792C11.8601 91.4851 11.4031 91.2535 10.9182 91.2596L10.4904 91.2652C9.26907 91.2807 8.56 89.8961 9.29053 88.9222L9.54646 88.581C9.83656 88.1943 9.91674 87.6904 9.76096 87.2333L9.62356 86.8304C9.23132 85.6794 10.3357 84.5807 11.4925 84.971Z" fill="#40916C"/>
</g>
<g opacity="0.590947">
<path d="M89.5472 20.0493C88.6283 18.8578 88.9127 17.0829 90.1776 16.1174C91.4423 15.1519 93.2394 15.3378 94.1583 16.5294C94.1601 16.5317 94.1617 16.5339 94.1634 16.5361" stroke="#40916C" stroke-width="1.97683" stroke-linecap="round" stroke-linejoin="round"/>
</g>
<g opacity="0.590947">
<path d="M97.7249 36.4846L98.13 36.6213C98.5893 36.7763 99.096 36.6964 99.4846 36.4078L99.8276 36.1533C100.807 35.4265 102.198 36.1319 102.183 37.3471L102.177 37.7726C102.171 38.2551 102.404 38.7098 102.8 38.9884L103.149 39.2342C104.146 39.9358 103.902 41.4706 102.736 41.8313L102.327 41.9576C101.864 42.1009 101.501 42.4617 101.357 42.9225L101.23 43.329C100.868 44.4894 99.325 44.7324 98.6198 43.7403L98.3728 43.3928C98.0926 42.9988 97.6357 42.7672 97.1507 42.7734L96.7229 42.7788C95.5015 42.7942 94.7924 41.4098 95.523 40.4359L95.7788 40.0948C96.0689 39.708 96.1492 39.204 95.9933 38.747L95.8559 38.344C95.4637 37.1931 96.5681 36.0944 97.7249 36.4846Z" fill="#9AA3C4"/>
</g>
<g opacity="0.590947">
<path d="M100.557 72.2383C102.619 72.5084 104.08 74.5134 103.793 76.6797C103.507 78.8461 101.574 80.4065 99.5122 80.1363C99.5082 80.1358 99.5044 80.1353 99.5005 80.1348" stroke="#DE3E3E" stroke-width="1.48262" stroke-linecap="round" stroke-linejoin="round"/>
</g>
<g opacity="0.590947">
<path d="M94.0611 97.6883L92.2601 98.7227C91.9342 98.9099 91.5173 98.7988 91.3291 98.4745L88.0772 92.8712C87.8891 92.5467 88.0007 92.132 88.3267 91.9448L90.1277 90.9103C90.4536 90.723 90.8705 90.8341 91.0587 91.1585L94.3105 96.762C94.4987 97.0863 94.387 97.501 94.0611 97.6883Z" fill="#40916C"/>
</g>
<g opacity="0.590947">
<path d="M35.039 100.957C33.773 99.3159 34.165 96.8705 35.9075 95.5404C37.65 94.2102 40.1256 94.4665 41.3916 96.108L41.3989 96.1173" stroke="#9AA3C4" stroke-width="1.97683" stroke-linecap="round" stroke-linejoin="round"/>
</g>
<g opacity="0.199992">
<path d="M104.524 50.8106C104.524 78.1752 82.2262 100.359 54.7205 100.359C27.2149 100.359 4.91699 78.1752 4.91699 50.8106C4.91699 23.446 27.2149 1.2627 54.7205 1.2627C82.2262 1.2627 104.524 23.446 104.524 50.8106Z" fill="#40916C"/>
</g>
<path d="M89.4111 50.8108C89.4111 69.8717 73.8795 85.3238 54.7202 85.3238C35.561 85.3238 20.0293 69.8717 20.0293 50.8108C20.0293 31.7497 35.561 16.2979 54.7202 16.2979C73.8795 16.2979 89.4111 31.7497 89.4111 50.8108Z" fill="#40916C"/>
<path d="M39.4067 50.8698L49.5767 60.9877L70.0346 40.6348" stroke="white" stroke-width="4.97783" stroke-linecap="round" stroke-linejoin="round"/>
</svg>
